<svg width="80" height="80" viewBox="0 0 80 80" fill="none" xmlns="http://www.w3.org/2000/svg">
<path d="M73.4455 17.6962C72.3169 9.19775 65.0038 2.48901 56.346 1.19841C54.8811 0.979247 49.3453 0.175659 36.5206 0.175659H36.4245C23.5879 0.175659 20.838 0.979247 19.373 1.19841C10.9433 2.46467 3.25813 8.4794 1.38487 17.0875C0.496264 21.3246 0.400199 26.0244 0.568313 30.3345C0.808475 36.5198 0.856508 42.6805 1.40888 48.8414C1.79314 52.9325 2.45359 56.9869 3.40223 60.9804C5.17943 68.3588 12.3603 74.4954 19.3971 76.9914C26.9261 79.5969 35.0317 80.0352 42.7888 78.2453C43.6414 78.0385 44.482 77.8071 45.3226 77.5392C47.2079 76.9304 49.4173 76.2486 51.0504 75.0555C51.0745 75.0432 51.0865 75.0189 51.0985 74.9945C51.1105 74.9702 51.1225 74.9458 51.1225 74.9093V68.9433C51.1225 68.9433 51.1225 68.8946 51.0985 68.8702C51.0985 68.8459 51.0745 68.8215 51.0504 68.8093C51.0264 68.7972 51.0024 68.785 50.9785 68.7728C50.9543 68.7728 50.9304 68.7728 50.9064 68.7728C45.9349 69.9783 40.8316 70.587 35.7281 70.5748C26.9261 70.5748 24.5605 66.3377 23.8881 64.5844C23.3477 63.0625 22.9995 61.4675 22.8554 59.8603C22.8554 59.8359 22.8554 59.8116 22.8674 59.7873C22.8674 59.7629 22.8914 59.7386 22.9155 59.7263C22.9394 59.7142 22.9634 59.702 22.9874 59.6899H23.0715C27.9588 60.883 32.9782 61.4918 38.0096 61.4918C39.2225 61.4918 40.4232 61.4918 41.6361 61.4554C46.6915 61.3092 52.0232 61.0535 57.0065 60.0673C57.1265 60.0429 57.2587 60.0186 57.3667 59.9943C65.2201 58.4601 72.6891 53.6629 73.4455 41.5117C73.4697 41.0369 73.5417 36.4954 73.5417 36.0084C73.5417 34.3159 74.082 24.0398 73.4576 17.7207L73.4455 17.6962Z" fill="url(#paint0_linear_612_176)"/>
<path d="M15.3145 22.4452C15.3145 19.9613 17.2718 17.9646 19.6974 17.9646C22.1231 17.9646 24.0803 19.9735 24.0803 22.4452C24.0803 24.9168 22.1231 26.9257 19.6974 26.9257C17.2718 26.9257 15.3145 24.9168 15.3145 22.4452Z" fill="white"/>
<defs>
<linearGradient id="paint0_linear_612_176" x1="37.121" y1="0.175659" x2="37.121" y2="79.3169" gradientUnits="userSpaceOnUse">
<stop stop-color="#6364FF"/>
<stop offset="1" stop-color="#563ACC"/>
</linearGradient>
</defs>
</svg>
